PathFileType	4	(X/Y/Z)	D:\TRACE\spotREDO_2-26-24\spot_justBody_Motion_1_2-v60.trc
DataRate	CameraRate	NumFrames	NumMarkers	Units	OrigDataRate	OrigDataStartFrame	OrigNumFrames
100.00	100.00	      21	9	mm	100.00	3501	      7000
Frame#	Time	front left toe			Front right toe			aft left toe			aft right toe			Arm			FL body			FR body			AL Body			AR Body			
		X1	Y1	Z1	X2	Y2	Z2	X3	Y3	Z3	X4	Y4	Z4	X5	Y5	Z5	X6	Y6	Z6	X7	Y7	Z7	X8	Y8	Z8	X9	Y9	Z9	

3501	35.000	-237.63832	20.03561	-95.86963	190.15135	5.79516	-156.12595	-192.15155	40.73630	325.45987	287.02386	31.76298	277.70001	25.62389	803.08057	-375.89703	-50.13573	543.29126	-333.58459	103.55355	549.01605	-359.62003	87.49171	574.02063	538.90796	234.14902	575.99658	516.78888	
3502	35.010	-238.40695	19.57850	-95.78223	189.63928	5.85533	-155.76080	-193.33557	40.56686	325.84091	285.75946	31.76587	277.57199	23.76623	802.89148	-375.52130	-51.57150	543.25287	-333.17520	102.05106	548.95575	-359.13110	85.85032	573.94366	539.17242	232.68968	576.01007	516.97345	
3503	35.020	-239.62123	19.91075	-95.72011	188.59114	6.20037	-155.75410	-194.02718	40.38006	325.77744	285.11105	31.95750	277.71579	22.31337	802.69122	-375.06796	-53.20330	542.85150	-332.60510	100.10805	549.06647	-359.02991	84.68153	573.89746	539.57153	231.39868	575.86133	517.24365	
3504	35.030	-240.38147	19.69073	-95.47542	187.33392	6.25948	-156.13995	-195.18631	39.90867	326.13184	283.87473	31.89506	277.74896	20.15236	802.60663	-374.64233	-55.51882	543.35608	-332.91537	98.36893	549.05774	-358.67233	83.14216	573.82422	539.92590	230.12045	575.92285	517.51141	
3505	35.040	-241.73851	19.68789	-95.22186	186.92615	6.43031	-155.91743	-196.01443	40.14396	326.22910	283.08710	31.82475	277.85178	18.02801	802.73163	-374.28287	-57.11433	542.88147	-331.88864	96.59210	549.07587	-358.20850	81.83400	573.61896	540.21600	228.58501	575.96222	517.92712	
3506	35.050	-242.43704	19.46704	-95.15696	185.37854	6.37991	-156.02481	-197.04150	40.05730	326.27979	281.91599	31.91588	277.95758	15.99894	802.62543	-373.52982	-59.09338	542.86505	-331.53140	94.85953	549.26801	-358.24036	80.67270	573.42639	540.59454	227.28767	575.97272	518.17841	
3507	35.060	-243.66373	19.59624	-94.80260	184.08377	6.56935	-155.97797	-198.03548	40.06611	326.45059	280.77377	31.79888	277.89035	13.87628	802.60632	-373.28760	-60.69649	542.64612	-331.26443	92.91230	549.13287	-357.63528	78.97244	573.27460	541.02063	225.59558	575.77576	518.27515	
3508	35.070	-244.38254	19.22996	-94.86176	183.33240	6.88217	-156.12573	-198.91492	39.89762	326.43057	279.97488	32.02882	277.97189	11.59507	802.44092	-373.02603	-62.55224	542.41412	-330.61356	90.84645	549.25092	-357.69778	77.56627	573.05450	541.15973	224.15710	575.78119	518.44751	
3509	35.080	-245.98384	19.29605	-94.81882	182.10760	6.86943	-156.24860	-200.15335	39.72517	326.30945	278.68311	31.75665	277.84772	9.16538	802.37866	-372.60321	-65.15285	542.46313	-330.90778	89.06473	548.98505	-357.09375	75.93494	573.05200	541.45892	222.76746	575.85425	518.81238	
3510	35.090	-246.77267	19.09300	-94.63352	181.26024	6.81195	-156.04163	-200.89812	39.61887	326.28714	277.84766	31.74153	277.92731	7.12901	802.22467	-372.24152	-66.34750	541.97864	-330.03827	87.10757	548.91174	-356.91641	74.45584	572.85358	541.85364	221.05997	575.85199	519.14136	
3511	35.100	-247.97227	19.29633	-94.57922	180.21860	7.03508	-156.05832	-202.11627	39.47399	326.38504	276.59207	31.70336	277.97269	4.92855	802.06616	-372.20721	-68.32757	541.68585	-329.48169	85.01375	548.73975	-356.47940	72.92473	572.76294	542.28607	219.45674	575.83881	519.28955	
3512	35.110	-248.81258	19.15664	-94.38554	179.05714	7.22219	-156.10345	-203.03813	39.45768	326.58032	275.61032	31.68542	277.89111	2.75784	801.75635	-371.58197	-70.20564	541.32507	-329.21255	83.37943	548.72162	-356.36548	71.44616	572.60632	542.56207	217.85593	575.86914	519.54358	
3513	35.120	-250.02141	18.95904	-94.35485	178.33376	7.22923	-155.75592	-203.81194	39.22863	326.62045	274.62964	31.63640	277.91379	0.62178	801.47595	-371.13068	-72.21072	541.21063	-329.28534	81.26937	548.42145	-355.76312	69.47063	572.43085	542.85852	216.48270	576.16626	520.35107	
3514	35.130	-250.75134	18.97680	-94.37650	176.62421	7.18504	-155.93484	-205.08571	39.03531	326.87390	274.51944	32.07753	278.02756	-1.57321	801.17395	-371.11047	-74.09200	540.85907	-328.72687	79.53100	548.21027	-355.49048	67.50661	572.42468	543.11090	214.07094	575.95856	519.98938	
3515	35.140	-251.97888	19.00102	-94.11299	175.91571	7.25195	-155.78462	-205.93375	39.03283	326.99899	272.33658	31.57925	277.84735	-3.52948	800.98969	-370.69324	-75.79092	540.39197	-328.34821	77.41241	548.17328	-355.26675	66.14809	572.35242	543.37280	212.67021	576.02191	520.23816	
3516	35.150	-252.97240	18.96945	-94.05839	174.62721	7.32669	-155.85832	-206.99084	38.69730	327.13510	270.99741	31.56515	277.86136	-5.63120	800.79144	-370.37027	-77.41539	540.34888	-328.04486	75.57077	548.13892	-355.06281	64.27206	572.27368	543.65094	210.69447	576.22083	520.56567	
3517	35.160	-254.16997	19.19917	-94.07539	173.89221	7.65935	-155.86635	-207.88614	38.49700	327.36380	269.97888	31.52777	278.15576	-7.91885	800.81268	-370.33856	-79.64673	539.91394	-327.75418	73.82935	547.84802	-354.59210	62.42223	572.42792	544.04034	208.96089	576.40808	520.91504	
3518	35.170	-254.93074	18.89036	-93.93616	171.46761	7.06283	-156.27544	-209.22168	38.49125	327.32172	269.23465	31.61658	278.39807	-9.76654	800.43512	-370.00790	-81.43530	539.94336	-327.47476	72.05435	547.78876	-354.36243	60.58817	572.48224	544.32361	206.87515	576.49811	521.13055	
3519	35.180	-256.17642	19.09012	-93.79192	171.66588	7.58841	-155.56146	-209.92606	38.29699	327.34091	269.46957	31.94725	278.51157	-11.42300	800.25641	-369.86353	-83.16269	539.50702	-327.17657	70.22375	547.54779	-354.08868	58.43898	572.60284	544.32538	205.20744	576.63672	521.28937	
3520	35.190	-256.80835	18.73573	-93.78144	173.00052	8.65077	-154.63365	-211.38246	38.30684	327.24652	268.44278	32.07370	278.59064	-13.73189	800.24567	-369.66260	-85.70426	539.82813	-327.54437	68.30119	547.56293	-353.91769	56.57909	572.75262	544.48096	203.35622	576.56409	521.78986	
3521	35.200	-258.08450	18.91969	-93.53580	170.24258	8.02021	-155.35263	-212.31206	37.86243	327.27393	267.01346	31.69381	278.49283	-14.97547	799.82916	-369.46310	-86.92656	539.26978	-326.51843	66.59931	547.42426	-353.50159	54.79542	572.76770	545.06061	201.15820	576.69489	522.05127	
